
<svg xmlns="http://www.w3.org/2000/svg" width="1600" height="1000" viewBox="0 0 1600 1000">
  <defs>
    <marker id="arrow" markerWidth="14" markerHeight="14" refX="11" refY="5" orient="auto" markerUnits="strokeWidth">
      <path d="M 0 0 L 11 5 L 0 10 z" fill="#d8c0a4"/>
    </marker>
    <marker id="inherit" markerWidth="18" markerHeight="18" refX="16" refY="8" orient="auto" markerUnits="strokeWidth">
      <path d="M 1 1 L 16 8 L 1 15 z" fill="#2e343d" stroke="#d8c0a4" stroke-width="2"/>
    </marker>
    <marker id="diamond" markerWidth="18" markerHeight="18" refX="2" refY="8" orient="auto" markerUnits="strokeWidth">
      <path d="M 2 8 L 9 1 L 16 8 L 9 15 z" fill="#2e343d" stroke="#d8c0a4" stroke-width="2"/>
    </marker>
    <filter id="shadow" x="-20%" y="-20%" width="140%" height="140%">
      <feDropShadow dx="0" dy="10" stdDeviation="10" flood-color="#10141a" flood-opacity="0.32"/>
    </filter>
  </defs>
  <rect width="1600" height="1000" fill="#2e343d"/>
  <rect x="38" y="38" width="1524" height="924" rx="34" fill="rgba(57, 64, 73, 0.68)" stroke="#6689a1" stroke-width="2"/>
  <text x="80" y="104" font-family="Nunito, Arial, sans-serif" font-size="42" font-weight="900" fill="#fcdebe">Abstract Factory</text>
  <text x="80" y="144" font-family="Nunito, Arial, sans-serif" font-size="21" font-weight="700" letter-spacing="3" fill="#d8c0a4">Creational pattern · compatible product families</text>
  <g font-family="Nunito, Arial, sans-serif" filter="url(#shadow)">


    <g>
      <rect x="80" y="430" width="210" height="92" rx="10" fill="#3e4a56" stroke="#6689a1" stroke-width="2"/>
      <rect x="80" y="430" width="210" height="42" rx="10" fill="#465767" stroke="#6689a1" stroke-width="2"/>
      <line x1="80" y1="472" x2="290" y2="472" stroke="#6689a1" stroke-width="2"/>

        <text x="185" y="454" text-anchor="middle" font-size="23" font-weight="900" fill="#fcdebe">Client</text>


        <text x="98" y="500" font-size="19" fill="#d8c0a4">+ buildUI()</text>

    </g>

    <g>
      <rect x="420" y="180" width="330" height="134" rx="10" fill="#3e4a56" stroke="#6689a1" stroke-width="2"/>
      <rect x="420" y="180" width="330" height="60" rx="10" fill="#465767" stroke="#6689a1" stroke-width="2"/>
      <line x1="420" y1="240" x2="750" y2="240" stroke="#6689a1" stroke-width="2"/>

        <text x="585" y="204" text-anchor="middle" font-size="18" font-weight="700" fill="#fcdebe">&lt;&lt;interface&gt;&gt;</text>

        <text x="585" y="226" text-anchor="middle" font-size="23" font-weight="900" fill="#fcdebe">AbstractFactory</text>


        <text x="438" y="268" font-size="19" fill="#d8c0a4">+ createA()</text>

        <text x="438" y="292" font-size="19" fill="#d8c0a4">+ createB()</text>

    </g>

    <g>
      <rect x="390" y="590" width="270" height="110" rx="10" fill="#3e4a56" stroke="#6689a1" stroke-width="2"/>
      <rect x="390" y="590" width="270" height="42" rx="10" fill="#465767" stroke="#6689a1" stroke-width="2"/>
      <line x1="390" y1="632" x2="660" y2="632" stroke="#6689a1" stroke-width="2"/>

        <text x="525" y="614" text-anchor="middle" font-size="23" font-weight="900" fill="#fcdebe">FactoryFamily1</text>


        <text x="408" y="660" font-size="19" fill="#d8c0a4">+ createA()</text>

        <text x="408" y="684" font-size="19" fill="#d8c0a4">+ createB()</text>

    </g>

    <g>
      <rect x="700" y="590" width="270" height="110" rx="10" fill="#3e4a56" stroke="#6689a1" stroke-width="2"/>
      <rect x="700" y="590" width="270" height="42" rx="10" fill="#465767" stroke="#6689a1" stroke-width="2"/>
      <line x1="700" y1="632" x2="970" y2="632" stroke="#6689a1" stroke-width="2"/>

        <text x="835" y="614" text-anchor="middle" font-size="23" font-weight="900" fill="#fcdebe">FactoryFamily2</text>


        <text x="718" y="660" font-size="19" fill="#d8c0a4">+ createA()</text>

        <text x="718" y="684" font-size="19" fill="#d8c0a4">+ createB()</text>

    </g>

    <g>
      <rect x="1070" y="160" width="300" height="110" rx="10" fill="#3e4a56" stroke="#6689a1" stroke-width="2"/>
      <rect x="1070" y="160" width="300" height="60" rx="10" fill="#465767" stroke="#6689a1" stroke-width="2"/>
      <line x1="1070" y1="220" x2="1370" y2="220" stroke="#6689a1" stroke-width="2"/>

        <text x="1220" y="184" text-anchor="middle" font-size="18" font-weight="700" fill="#fcdebe">&lt;&lt;interface&gt;&gt;</text>

        <text x="1220" y="206" text-anchor="middle" font-size="23" font-weight="900" fill="#fcdebe">AbstractProductA</text>


        <text x="1088" y="248" font-size="19" fill="#d8c0a4">+ render()</text>

    </g>

    <g>
      <rect x="1070" y="390" width="300" height="110" rx="10" fill="#3e4a56" stroke="#6689a1" stroke-width="2"/>
      <rect x="1070" y="390" width="300" height="60" rx="10" fill="#465767" stroke="#6689a1" stroke-width="2"/>
      <line x1="1070" y1="450" x2="1370" y2="450" stroke="#6689a1" stroke-width="2"/>

        <text x="1220" y="414" text-anchor="middle" font-size="18" font-weight="700" fill="#fcdebe">&lt;&lt;interface&gt;&gt;</text>

        <text x="1220" y="436" text-anchor="middle" font-size="23" font-weight="900" fill="#fcdebe">AbstractProductB</text>


        <text x="1088" y="478" font-size="19" fill="#d8c0a4">+ interact(A)</text>

    </g>

    <g>
      <rect x="1040" y="650" width="260" height="92" rx="10" fill="#3e4a56" stroke="#6689a1" stroke-width="2"/>
      <rect x="1040" y="650" width="260" height="42" rx="10" fill="#465767" stroke="#6689a1" stroke-width="2"/>
      <line x1="1040" y1="692" x2="1300" y2="692" stroke="#6689a1" stroke-width="2"/>

        <text x="1170" y="674" text-anchor="middle" font-size="23" font-weight="900" fill="#fcdebe">ProductA1 / A2</text>


        <text x="1058" y="720" font-size="19" fill="#d8c0a4">family-specific A</text>

    </g>

    <g>
      <rect x="1320" y="650" width="220" height="92" rx="10" fill="#3e4a56" stroke="#6689a1" stroke-width="2"/>
      <rect x="1320" y="650" width="220" height="42" rx="10" fill="#465767" stroke="#6689a1" stroke-width="2"/>
      <line x1="1320" y1="692" x2="1540" y2="692" stroke="#6689a1" stroke-width="2"/>

        <text x="1430" y="674" text-anchor="middle" font-size="23" font-weight="900" fill="#fcdebe">ProductB1 / B2</text>


        <text x="1338" y="720" font-size="19" fill="#d8c0a4">family-specific B</text>

    </g>

  </g>
  <g font-family="Nunito, Arial, sans-serif">

    <g>
      <path d="M 290 470 L 420 280" fill="none" stroke="#d8c0a4" stroke-width="2.4" stroke-dasharray="9 7" marker-end="url(#arrow)"/>
      <text x="355" y="367" text-anchor="middle" font-size="17" fill="#d8c0a4">uses factory</text>
    </g>

    <g>
      <path d="M 525 590 L 555 326" fill="none" stroke="#d8c0a4" stroke-width="2.4" stroke-dasharray="9 7" marker-end="url(#inherit)"/>

    </g>

    <g>
      <path d="M 835 590 L 615 326" fill="none" stroke="#d8c0a4" stroke-width="2.4" stroke-dasharray="9 7" marker-end="url(#inherit)"/>

    </g>

    <g>
      <path d="M 750 240 L 1070 240" fill="none" stroke="#d8c0a4" stroke-width="2.4" stroke-dasharray="9 7" marker-end="url(#arrow)"/>
      <text x="910" y="232" text-anchor="middle" font-size="17" fill="#d8c0a4">creates A</text>
    </g>

    <g>
      <path d="M 750 300 L 1070 470" fill="none" stroke="#d8c0a4" stroke-width="2.4" stroke-dasharray="9 7" marker-end="url(#arrow)"/>
      <text x="910" y="377" text-anchor="middle" font-size="17" fill="#d8c0a4">creates B</text>
    </g>

    <g>
      <path d="M 1170 650 L 1220 282" fill="none" stroke="#d8c0a4" stroke-width="2.4" stroke-dasharray="9 7" marker-end="url(#inherit)"/>

    </g>

    <g>
      <path d="M 1430 650 L 1280 512" fill="none" stroke="#d8c0a4" stroke-width="2.4" stroke-dasharray="9 7" marker-end="url(#inherit)"/>

    </g>

  </g>
  <text x="80" y="928" font-family="Nunito, Arial, sans-serif" font-size="18" fill="#d8c0a4">UML estructural generado para Lectura Lenta</text>
</svg>
