
<svg xmlns="http://www.w3.org/2000/svg" width="1600" height="1000" viewBox="0 0 1600 1000">
  <defs>
    <marker id="arrow" markerWidth="14" markerHeight="14" refX="11" refY="5" orient="auto" markerUnits="strokeWidth">
      <path d="M 0 0 L 11 5 L 0 10 z" fill="#d8c0a4"/>
    </marker>
    <marker id="inherit" markerWidth="18" markerHeight="18" refX="16" refY="8" orient="auto" markerUnits="strokeWidth">
      <path d="M 1 1 L 16 8 L 1 15 z" fill="#2e343d" stroke="#d8c0a4" stroke-width="2"/>
    </marker>
    <marker id="diamond" markerWidth="18" markerHeight="18" refX="2" refY="8" orient="auto" markerUnits="strokeWidth">
      <path d="M 2 8 L 9 1 L 16 8 L 9 15 z" fill="#2e343d" stroke="#d8c0a4" stroke-width="2"/>
    </marker>
    <filter id="shadow" x="-20%" y="-20%" width="140%" height="140%">
      <feDropShadow dx="0" dy="10" stdDeviation="10" flood-color="#10141a" flood-opacity="0.32"/>
    </filter>
  </defs>
  <rect width="1600" height="1000" fill="#2e343d"/>
  <rect x="38" y="38" width="1524" height="924" rx="34" fill="rgba(57, 64, 73, 0.68)" stroke="#6689a1" stroke-width="2"/>
  <text x="80" y="104" font-family="Nunito, Arial, sans-serif" font-size="42" font-weight="900" fill="#fcdebe">Prototype</text>
  <text x="80" y="144" font-family="Nunito, Arial, sans-serif" font-size="21" font-weight="700" letter-spacing="3" fill="#d8c0a4">Creational pattern · clone configured instances</text>
  <g font-family="Nunito, Arial, sans-serif" filter="url(#shadow)">

    <g>
      <rect x="1180" y="250" width="300" height="120" rx="12" fill="rgba(178, 110, 99, 0.16)" stroke="#b26e63" stroke-width="2"/>

        <text x="1198" y="280" font-size="18" fill="#fcdebe">New objects start from an existing</text>

        <text x="1198" y="304" font-size="18" fill="#fcdebe">configured object.</text>

    </g>


    <g>
      <rect x="140" y="390" width="260" height="92" rx="10" fill="#3e4a56" stroke="#6689a1" stroke-width="2"/>
      <rect x="140" y="390" width="260" height="42" rx="10" fill="#465767" stroke="#6689a1" stroke-width="2"/>
      <line x1="140" y1="432" x2="400" y2="432" stroke="#6689a1" stroke-width="2"/>

        <text x="270" y="414" text-anchor="middle" font-size="23" font-weight="900" fill="#fcdebe">Client</text>


        <text x="158" y="460" font-size="19" fill="#d8c0a4">+ cloneAndAdjust()</text>

    </g>

    <g>
      <rect x="650" y="180" width="320" height="110" rx="10" fill="#3e4a56" stroke="#6689a1" stroke-width="2"/>
      <rect x="650" y="180" width="320" height="60" rx="10" fill="#465767" stroke="#6689a1" stroke-width="2"/>
      <line x1="650" y1="240" x2="970" y2="240" stroke="#6689a1" stroke-width="2"/>

        <text x="810" y="204" text-anchor="middle" font-size="18" font-weight="700" fill="#fcdebe">&lt;&lt;interface&gt;&gt;</text>

        <text x="810" y="226" text-anchor="middle" font-size="23" font-weight="900" fill="#fcdebe">Prototype</text>


        <text x="668" y="268" font-size="19" fill="#d8c0a4">+ clone(): Prototype</text>

    </g>

    <g>
      <rect x="520" y="580" width="320" height="110" rx="10" fill="#3e4a56" stroke="#6689a1" stroke-width="2"/>
      <rect x="520" y="580" width="320" height="42" rx="10" fill="#465767" stroke="#6689a1" stroke-width="2"/>
      <line x1="520" y1="622" x2="840" y2="622" stroke="#6689a1" stroke-width="2"/>

        <text x="680" y="604" text-anchor="middle" font-size="23" font-weight="900" fill="#fcdebe">ConcretePrototypeA</text>


        <text x="538" y="650" font-size="19" fill="#d8c0a4">state</text>

        <text x="538" y="674" font-size="19" fill="#d8c0a4">+ clone()</text>

    </g>

    <g>
      <rect x="930" y="580" width="320" height="110" rx="10" fill="#3e4a56" stroke="#6689a1" stroke-width="2"/>
      <rect x="930" y="580" width="320" height="42" rx="10" fill="#465767" stroke="#6689a1" stroke-width="2"/>
      <line x1="930" y1="622" x2="1250" y2="622" stroke="#6689a1" stroke-width="2"/>

        <text x="1090" y="604" text-anchor="middle" font-size="23" font-weight="900" fill="#fcdebe">ConcretePrototypeB</text>


        <text x="948" y="650" font-size="19" fill="#d8c0a4">state</text>

        <text x="948" y="674" font-size="19" fill="#d8c0a4">+ clone()</text>

    </g>

  </g>
  <g font-family="Nunito, Arial, sans-serif">

    <g>
      <path d="M 400 430 L 650 260" fill="none" stroke="#d8c0a4" stroke-width="2.4" stroke-dasharray="9 7" marker-end="url(#arrow)"/>
      <text x="525" y="337" text-anchor="middle" font-size="17" fill="#d8c0a4">copies</text>
    </g>

    <g>
      <path d="M 680 580 L 760 302" fill="none" stroke="#d8c0a4" stroke-width="2.4" stroke-dasharray="9 7" marker-end="url(#inherit)"/>

    </g>

    <g>
      <path d="M 1090 580 L 860 302" fill="none" stroke="#d8c0a4" stroke-width="2.4" stroke-dasharray="9 7" marker-end="url(#inherit)"/>

    </g>

  </g>
  <text x="80" y="928" font-family="Nunito, Arial, sans-serif" font-size="18" fill="#d8c0a4">UML estructural generado para Lectura Lenta</text>
</svg>
