
<svg xmlns="http://www.w3.org/2000/svg" width="1600" height="1000" viewBox="0 0 1600 1000">
  <defs>
    <marker id="arrow" markerWidth="14" markerHeight="14" refX="11" refY="5" orient="auto" markerUnits="strokeWidth">
      <path d="M 0 0 L 11 5 L 0 10 z" fill="#d8c0a4"/>
    </marker>
    <marker id="inherit" markerWidth="18" markerHeight="18" refX="16" refY="8" orient="auto" markerUnits="strokeWidth">
      <path d="M 1 1 L 16 8 L 1 15 z" fill="#2e343d" stroke="#d8c0a4" stroke-width="2"/>
    </marker>
    <marker id="diamond" markerWidth="18" markerHeight="18" refX="2" refY="8" orient="auto" markerUnits="strokeWidth">
      <path d="M 2 8 L 9 1 L 16 8 L 9 15 z" fill="#2e343d" stroke="#d8c0a4" stroke-width="2"/>
    </marker>
    <filter id="shadow" x="-20%" y="-20%" width="140%" height="140%">
      <feDropShadow dx="0" dy="10" stdDeviation="10" flood-color="#10141a" flood-opacity="0.32"/>
    </filter>
  </defs>
  <rect width="1600" height="1000" fill="#2e343d"/>
  <rect x="38" y="38" width="1524" height="924" rx="34" fill="rgba(57, 64, 73, 0.68)" stroke="#6689a1" stroke-width="2"/>
  <text x="80" y="104" font-family="Nunito, Arial, sans-serif" font-size="42" font-weight="900" fill="#fcdebe">State</text>
  <text x="80" y="144" font-family="Nunito, Arial, sans-serif" font-size="21" font-weight="700" letter-spacing="3" fill="#d8c0a4">Behavioral pattern · behavior by internal state</text>
  <g font-family="Nunito, Arial, sans-serif" filter="url(#shadow)">


    <g>
      <rect x="150" y="360" width="320" height="134" rx="10" fill="#3e4a56" stroke="#6689a1" stroke-width="2"/>
      <rect x="150" y="360" width="320" height="42" rx="10" fill="#465767" stroke="#6689a1" stroke-width="2"/>
      <line x1="150" y1="402" x2="470" y2="402" stroke="#6689a1" stroke-width="2"/>

        <text x="310" y="384" text-anchor="middle" font-size="23" font-weight="900" fill="#fcdebe">Context</text>


        <text x="168" y="430" font-size="19" fill="#d8c0a4">- state</text>

        <text x="168" y="454" font-size="19" fill="#d8c0a4">+ request()</text>

        <text x="168" y="478" font-size="19" fill="#d8c0a4">+ setState()</text>

    </g>

    <g>
      <rect x="680" y="170" width="300" height="110" rx="10" fill="#3e4a56" stroke="#6689a1" stroke-width="2"/>
      <rect x="680" y="170" width="300" height="60" rx="10" fill="#465767" stroke="#6689a1" stroke-width="2"/>
      <line x1="680" y1="230" x2="980" y2="230" stroke="#6689a1" stroke-width="2"/>

        <text x="830" y="194" text-anchor="middle" font-size="18" font-weight="700" fill="#fcdebe">&lt;&lt;interface&gt;&gt;</text>

        <text x="830" y="216" text-anchor="middle" font-size="23" font-weight="900" fill="#fcdebe">State</text>


        <text x="698" y="258" font-size="19" fill="#d8c0a4">+ handle(context)</text>

    </g>

    <g>
      <rect x="540" y="580" width="300" height="92" rx="10" fill="#3e4a56" stroke="#6689a1" stroke-width="2"/>
      <rect x="540" y="580" width="300" height="42" rx="10" fill="#465767" stroke="#6689a1" stroke-width="2"/>
      <line x1="540" y1="622" x2="840" y2="622" stroke="#6689a1" stroke-width="2"/>

        <text x="690" y="604" text-anchor="middle" font-size="23" font-weight="900" fill="#fcdebe">ConcreteStateA</text>


        <text x="558" y="650" font-size="19" fill="#d8c0a4">+ handle(context)</text>

    </g>

    <g>
      <rect x="900" y="580" width="300" height="92" rx="10" fill="#3e4a56" stroke="#6689a1" stroke-width="2"/>
      <rect x="900" y="580" width="300" height="42" rx="10" fill="#465767" stroke="#6689a1" stroke-width="2"/>
      <line x1="900" y1="622" x2="1200" y2="622" stroke="#6689a1" stroke-width="2"/>

        <text x="1050" y="604" text-anchor="middle" font-size="23" font-weight="900" fill="#fcdebe">ConcreteStateB</text>


        <text x="918" y="650" font-size="19" fill="#d8c0a4">+ handle(context)</text>

    </g>

  </g>
  <g font-family="Nunito, Arial, sans-serif">

    <g>
      <path d="M 470 430 L 680 260" fill="none" stroke="#d8c0a4" stroke-width="2.4"  marker-end="url(#arrow)"/>
      <text x="575" y="337" text-anchor="middle" font-size="17" fill="#d8c0a4">current state</text>
    </g>

    <g>
      <path d="M 690 580 L 770 292" fill="none" stroke="#d8c0a4" stroke-width="2.4" stroke-dasharray="9 7" marker-end="url(#inherit)"/>

    </g>

    <g>
      <path d="M 1050 580 L 890 292" fill="none" stroke="#d8c0a4" stroke-width="2.4" stroke-dasharray="9 7" marker-end="url(#inherit)"/>

    </g>

    <g>
      <path d="M 900 655 L 470 500" fill="none" stroke="#d8c0a4" stroke-width="2.4" stroke-dasharray="9 7" marker-end="url(#arrow)"/>
      <text x="685" y="569.5" text-anchor="middle" font-size="17" fill="#d8c0a4">may transition</text>
    </g>

  </g>
  <text x="80" y="928" font-family="Nunito, Arial, sans-serif" font-size="18" fill="#d8c0a4">UML estructural generado para Lectura Lenta</text>
</svg>
