
<svg xmlns="http://www.w3.org/2000/svg" width="1600" height="1000" viewBox="0 0 1600 1000">
  <defs>
    <marker id="arrow" markerWidth="14" markerHeight="14" refX="11" refY="5" orient="auto" markerUnits="strokeWidth">
      <path d="M 0 0 L 11 5 L 0 10 z" fill="#d8c0a4"/>
    </marker>
    <marker id="inherit" markerWidth="18" markerHeight="18" refX="16" refY="8" orient="auto" markerUnits="strokeWidth">
      <path d="M 1 1 L 16 8 L 1 15 z" fill="#2e343d" stroke="#d8c0a4" stroke-width="2"/>
    </marker>
    <marker id="diamond" markerWidth="18" markerHeight="18" refX="2" refY="8" orient="auto" markerUnits="strokeWidth">
      <path d="M 2 8 L 9 1 L 16 8 L 9 15 z" fill="#2e343d" stroke="#d8c0a4" stroke-width="2"/>
    </marker>
    <filter id="shadow" x="-20%" y="-20%" width="140%" height="140%">
      <feDropShadow dx="0" dy="10" stdDeviation="10" flood-color="#10141a" flood-opacity="0.32"/>
    </filter>
  </defs>
  <rect width="1600" height="1000" fill="#2e343d"/>
  <rect x="38" y="38" width="1524" height="924" rx="34" fill="rgba(57, 64, 73, 0.68)" stroke="#6689a1" stroke-width="2"/>
  <text x="80" y="104" font-family="Nunito, Arial, sans-serif" font-size="42" font-weight="900" fill="#fcdebe">Iterator</text>
  <text x="80" y="144" font-family="Nunito, Arial, sans-serif" font-size="21" font-weight="700" letter-spacing="3" fill="#d8c0a4">Behavioral pattern · traversal without exposing structure</text>
  <g font-family="Nunito, Arial, sans-serif" filter="url(#shadow)">


    <g>
      <rect x="100" y="420" width="220" height="92" rx="10" fill="#3e4a56" stroke="#6689a1" stroke-width="2"/>
      <rect x="100" y="420" width="220" height="42" rx="10" fill="#465767" stroke="#6689a1" stroke-width="2"/>
      <line x1="100" y1="462" x2="320" y2="462" stroke="#6689a1" stroke-width="2"/>

        <text x="210" y="444" text-anchor="middle" font-size="23" font-weight="900" fill="#fcdebe">Client</text>


        <text x="118" y="490" font-size="19" fill="#d8c0a4">+ iterate()</text>

    </g>

    <g>
      <rect x="500" y="160" width="320" height="110" rx="10" fill="#3e4a56" stroke="#6689a1" stroke-width="2"/>
      <rect x="500" y="160" width="320" height="60" rx="10" fill="#465767" stroke="#6689a1" stroke-width="2"/>
      <line x1="500" y1="220" x2="820" y2="220" stroke="#6689a1" stroke-width="2"/>

        <text x="660" y="184" text-anchor="middle" font-size="18" font-weight="700" fill="#fcdebe">&lt;&lt;interface&gt;&gt;</text>

        <text x="660" y="206" text-anchor="middle" font-size="23" font-weight="900" fill="#fcdebe">Aggregate</text>


        <text x="518" y="248" font-size="19" fill="#d8c0a4">+ createIterator()</text>

    </g>

    <g>
      <rect x="500" y="580" width="340" height="110" rx="10" fill="#3e4a56" stroke="#6689a1" stroke-width="2"/>
      <rect x="500" y="580" width="340" height="42" rx="10" fill="#465767" stroke="#6689a1" stroke-width="2"/>
      <line x1="500" y1="622" x2="840" y2="622" stroke="#6689a1" stroke-width="2"/>

        <text x="670" y="604" text-anchor="middle" font-size="23" font-weight="900" fill="#fcdebe">ConcreteAggregate</text>


        <text x="518" y="650" font-size="19" fill="#d8c0a4">- items</text>

        <text x="518" y="674" font-size="19" fill="#d8c0a4">+ createIterator()</text>

    </g>

    <g>
      <rect x="1030" y="160" width="300" height="134" rx="10" fill="#3e4a56" stroke="#6689a1" stroke-width="2"/>
      <rect x="1030" y="160" width="300" height="60" rx="10" fill="#465767" stroke="#6689a1" stroke-width="2"/>
      <line x1="1030" y1="220" x2="1330" y2="220" stroke="#6689a1" stroke-width="2"/>

        <text x="1180" y="184" text-anchor="middle" font-size="18" font-weight="700" fill="#fcdebe">&lt;&lt;interface&gt;&gt;</text>

        <text x="1180" y="206" text-anchor="middle" font-size="23" font-weight="900" fill="#fcdebe">Iterator</text>


        <text x="1048" y="248" font-size="19" fill="#d8c0a4">+ next()</text>

        <text x="1048" y="272" font-size="19" fill="#d8c0a4">+ hasNext()</text>

    </g>

    <g>
      <rect x="1030" y="580" width="320" height="134" rx="10" fill="#3e4a56" stroke="#6689a1" stroke-width="2"/>
      <rect x="1030" y="580" width="320" height="42" rx="10" fill="#465767" stroke="#6689a1" stroke-width="2"/>
      <line x1="1030" y1="622" x2="1350" y2="622" stroke="#6689a1" stroke-width="2"/>

        <text x="1190" y="604" text-anchor="middle" font-size="23" font-weight="900" fill="#fcdebe">ConcreteIterator</text>


        <text x="1048" y="650" font-size="19" fill="#d8c0a4">- position</text>

        <text x="1048" y="674" font-size="19" fill="#d8c0a4">+ next()</text>

        <text x="1048" y="698" font-size="19" fill="#d8c0a4">+ hasNext()</text>

    </g>

  </g>
  <g font-family="Nunito, Arial, sans-serif">

    <g>
      <path d="M 320 460 L 500 250" fill="none" stroke="#d8c0a4" stroke-width="2.4" stroke-dasharray="9 7" marker-end="url(#arrow)"/>
      <text x="410" y="347" text-anchor="middle" font-size="17" fill="#d8c0a4">asks iterator</text>
    </g>

    <g>
      <path d="M 670 580 L 660 282" fill="none" stroke="#d8c0a4" stroke-width="2.4" stroke-dasharray="9 7" marker-end="url(#inherit)"/>

    </g>

    <g>
      <path d="M 820 240 L 1030 240" fill="none" stroke="#d8c0a4" stroke-width="2.4" stroke-dasharray="9 7" marker-end="url(#arrow)"/>
      <text x="925" y="232" text-anchor="middle" font-size="17" fill="#d8c0a4">returns</text>
    </g>

    <g>
      <path d="M 1190 580 L 1180 282" fill="none" stroke="#d8c0a4" stroke-width="2.4" stroke-dasharray="9 7" marker-end="url(#inherit)"/>

    </g>

    <g>
      <path d="M 1030 650 L 840 650" fill="none" stroke="#d8c0a4" stroke-width="2.4"  marker-end="url(#arrow)"/>
      <text x="935" y="642" text-anchor="middle" font-size="17" fill="#d8c0a4">reads aggregate</text>
    </g>

  </g>
  <text x="80" y="928" font-family="Nunito, Arial, sans-serif" font-size="18" fill="#d8c0a4">UML estructural generado para Lectura Lenta</text>
</svg>
