
<svg xmlns="http://www.w3.org/2000/svg" width="1600" height="1000" viewBox="0 0 1600 1000">
  <defs>
    <marker id="arrow" markerWidth="14" markerHeight="14" refX="11" refY="5" orient="auto" markerUnits="strokeWidth">
      <path d="M 0 0 L 11 5 L 0 10 z" fill="#d8c0a4"/>
    </marker>
    <marker id="inherit" markerWidth="18" markerHeight="18" refX="16" refY="8" orient="auto" markerUnits="strokeWidth">
      <path d="M 1 1 L 16 8 L 1 15 z" fill="#2e343d" stroke="#d8c0a4" stroke-width="2"/>
    </marker>
    <marker id="diamond" markerWidth="18" markerHeight="18" refX="2" refY="8" orient="auto" markerUnits="strokeWidth">
      <path d="M 2 8 L 9 1 L 16 8 L 9 15 z" fill="#2e343d" stroke="#d8c0a4" stroke-width="2"/>
    </marker>
    <filter id="shadow" x="-20%" y="-20%" width="140%" height="140%">
      <feDropShadow dx="0" dy="10" stdDeviation="10" flood-color="#10141a" flood-opacity="0.32"/>
    </filter>
  </defs>
  <rect width="1600" height="1000" fill="#2e343d"/>
  <rect x="38" y="38" width="1524" height="924" rx="34" fill="rgba(57, 64, 73, 0.68)" stroke="#6689a1" stroke-width="2"/>
  <text x="80" y="104" font-family="Nunito, Arial, sans-serif" font-size="42" font-weight="900" fill="#fcdebe">Visitor</text>
  <text x="80" y="144" font-family="Nunito, Arial, sans-serif" font-size="21" font-weight="700" letter-spacing="3" fill="#d8c0a4">Behavioral pattern · new operations over stable structures</text>
  <g font-family="Nunito, Arial, sans-serif" filter="url(#shadow)">


    <g>
      <rect x="80" y="420" width="300" height="92" rx="10" fill="#3e4a56" stroke="#6689a1" stroke-width="2"/>
      <rect x="80" y="420" width="300" height="42" rx="10" fill="#465767" stroke="#6689a1" stroke-width="2"/>
      <line x1="80" y1="462" x2="380" y2="462" stroke="#6689a1" stroke-width="2"/>

        <text x="230" y="444" text-anchor="middle" font-size="23" font-weight="900" fill="#fcdebe">ObjectStructure</text>


        <text x="98" y="490" font-size="19" fill="#d8c0a4">+ accept(visitor)</text>

    </g>

    <g>
      <rect x="560" y="150" width="300" height="110" rx="10" fill="#3e4a56" stroke="#6689a1" stroke-width="2"/>
      <rect x="560" y="150" width="300" height="60" rx="10" fill="#465767" stroke="#6689a1" stroke-width="2"/>
      <line x1="560" y1="210" x2="860" y2="210" stroke="#6689a1" stroke-width="2"/>

        <text x="710" y="174" text-anchor="middle" font-size="18" font-weight="700" fill="#fcdebe">&lt;&lt;interface&gt;&gt;</text>

        <text x="710" y="196" text-anchor="middle" font-size="23" font-weight="900" fill="#fcdebe">Element</text>


        <text x="578" y="238" font-size="19" fill="#d8c0a4">+ accept(visitor)</text>

    </g>

    <g>
      <rect x="420" y="560" width="300" height="92" rx="10" fill="#3e4a56" stroke="#6689a1" stroke-width="2"/>
      <rect x="420" y="560" width="300" height="42" rx="10" fill="#465767" stroke="#6689a1" stroke-width="2"/>
      <line x1="420" y1="602" x2="720" y2="602" stroke="#6689a1" stroke-width="2"/>

        <text x="570" y="584" text-anchor="middle" font-size="23" font-weight="900" fill="#fcdebe">ConcreteElementA</text>


        <text x="438" y="630" font-size="19" fill="#d8c0a4">+ accept(visitor)</text>

    </g>

    <g>
      <rect x="760" y="560" width="300" height="92" rx="10" fill="#3e4a56" stroke="#6689a1" stroke-width="2"/>
      <rect x="760" y="560" width="300" height="42" rx="10" fill="#465767" stroke="#6689a1" stroke-width="2"/>
      <line x1="760" y1="602" x2="1060" y2="602" stroke="#6689a1" stroke-width="2"/>

        <text x="910" y="584" text-anchor="middle" font-size="23" font-weight="900" fill="#fcdebe">ConcreteElementB</text>


        <text x="778" y="630" font-size="19" fill="#d8c0a4">+ accept(visitor)</text>

    </g>

    <g>
      <rect x="1150" y="150" width="330" height="134" rx="10" fill="#3e4a56" stroke="#6689a1" stroke-width="2"/>
      <rect x="1150" y="150" width="330" height="60" rx="10" fill="#465767" stroke="#6689a1" stroke-width="2"/>
      <line x1="1150" y1="210" x2="1480" y2="210" stroke="#6689a1" stroke-width="2"/>

        <text x="1315" y="174" text-anchor="middle" font-size="18" font-weight="700" fill="#fcdebe">&lt;&lt;interface&gt;&gt;</text>

        <text x="1315" y="196" text-anchor="middle" font-size="23" font-weight="900" fill="#fcdebe">Visitor</text>


        <text x="1168" y="238" font-size="19" fill="#d8c0a4">+ visit(A)</text>

        <text x="1168" y="262" font-size="19" fill="#d8c0a4">+ visit(B)</text>

    </g>

    <g>
      <rect x="1150" y="560" width="330" height="110" rx="10" fill="#3e4a56" stroke="#6689a1" stroke-width="2"/>
      <rect x="1150" y="560" width="330" height="42" rx="10" fill="#465767" stroke="#6689a1" stroke-width="2"/>
      <line x1="1150" y1="602" x2="1480" y2="602" stroke="#6689a1" stroke-width="2"/>

        <text x="1315" y="584" text-anchor="middle" font-size="23" font-weight="900" fill="#fcdebe">ConcreteVisitor</text>


        <text x="1168" y="630" font-size="19" fill="#d8c0a4">+ visit(A)</text>

        <text x="1168" y="654" font-size="19" fill="#d8c0a4">+ visit(B)</text>

    </g>

  </g>
  <g font-family="Nunito, Arial, sans-serif">

    <g>
      <path d="M 380 465 L 560 250" fill="none" stroke="#d8c0a4" stroke-width="2.4" stroke-dasharray="9 7" marker-end="url(#arrow)"/>
      <text x="470" y="349.5" text-anchor="middle" font-size="17" fill="#d8c0a4">traverses</text>
    </g>

    <g>
      <path d="M 570 560 L 650 272" fill="none" stroke="#d8c0a4" stroke-width="2.4" stroke-dasharray="9 7" marker-end="url(#inherit)"/>

    </g>

    <g>
      <path d="M 910 560 L 770 272" fill="none" stroke="#d8c0a4" stroke-width="2.4" stroke-dasharray="9 7" marker-end="url(#inherit)"/>

    </g>

    <g>
      <path d="M 860 240 L 1150 240" fill="none" stroke="#d8c0a4" stroke-width="2.4" stroke-dasharray="9 7" marker-end="url(#arrow)"/>
      <text x="1005" y="232" text-anchor="middle" font-size="17" fill="#d8c0a4">accepts</text>
    </g>

    <g>
      <path d="M 1315 560 L 1315 296" fill="none" stroke="#d8c0a4" stroke-width="2.4" stroke-dasharray="9 7" marker-end="url(#inherit)"/>

    </g>

  </g>
  <text x="80" y="928" font-family="Nunito, Arial, sans-serif" font-size="18" fill="#d8c0a4">UML estructural generado para Lectura Lenta</text>
</svg>
