
<svg xmlns="http://www.w3.org/2000/svg" width="1600" height="1000" viewBox="0 0 1600 1000">
  <defs>
    <marker id="arrow" markerWidth="14" markerHeight="14" refX="11" refY="5" orient="auto" markerUnits="strokeWidth">
      <path d="M 0 0 L 11 5 L 0 10 z" fill="#d8c0a4"/>
    </marker>
    <marker id="inherit" markerWidth="18" markerHeight="18" refX="16" refY="8" orient="auto" markerUnits="strokeWidth">
      <path d="M 1 1 L 16 8 L 1 15 z" fill="#2e343d" stroke="#d8c0a4" stroke-width="2"/>
    </marker>
    <marker id="diamond" markerWidth="18" markerHeight="18" refX="2" refY="8" orient="auto" markerUnits="strokeWidth">
      <path d="M 2 8 L 9 1 L 16 8 L 9 15 z" fill="#2e343d" stroke="#d8c0a4" stroke-width="2"/>
    </marker>
    <filter id="shadow" x="-20%" y="-20%" width="140%" height="140%">
      <feDropShadow dx="0" dy="10" stdDeviation="10" flood-color="#10141a" flood-opacity="0.32"/>
    </filter>
  </defs>
  <rect width="1600" height="1000" fill="#2e343d"/>
  <rect x="38" y="38" width="1524" height="924" rx="34" fill="rgba(57, 64, 73, 0.68)" stroke="#6689a1" stroke-width="2"/>
  <text x="80" y="104" font-family="Nunito, Arial, sans-serif" font-size="42" font-weight="900" fill="#fcdebe">Bridge</text>
  <text x="80" y="144" font-family="Nunito, Arial, sans-serif" font-size="21" font-weight="700" letter-spacing="3" fill="#d8c0a4">Structural pattern · independent dimensions</text>
  <g font-family="Nunito, Arial, sans-serif" filter="url(#shadow)">


    <g>
      <rect x="260" y="190" width="320" height="110" rx="10" fill="#3e4a56" stroke="#6689a1" stroke-width="2"/>
      <rect x="260" y="190" width="320" height="42" rx="10" fill="#465767" stroke="#6689a1" stroke-width="2"/>
      <line x1="260" y1="232" x2="580" y2="232" stroke="#6689a1" stroke-width="2"/>

        <text x="420" y="214" text-anchor="middle" font-size="23" font-weight="900" fill="#fcdebe">Abstraction</text>


        <text x="278" y="260" font-size="19" fill="#d8c0a4">- implementor</text>

        <text x="278" y="284" font-size="19" fill="#d8c0a4">+ operation()</text>

    </g>

    <g>
      <rect x="260" y="590" width="320" height="92" rx="10" fill="#3e4a56" stroke="#6689a1" stroke-width="2"/>
      <rect x="260" y="590" width="320" height="42" rx="10" fill="#465767" stroke="#6689a1" stroke-width="2"/>
      <line x1="260" y1="632" x2="580" y2="632" stroke="#6689a1" stroke-width="2"/>

        <text x="420" y="614" text-anchor="middle" font-size="23" font-weight="900" fill="#fcdebe">RefinedAbstraction</text>


        <text x="278" y="660" font-size="19" fill="#d8c0a4">+ operation()</text>

    </g>

    <g>
      <rect x="920" y="190" width="320" height="110" rx="10" fill="#3e4a56" stroke="#6689a1" stroke-width="2"/>
      <rect x="920" y="190" width="320" height="60" rx="10" fill="#465767" stroke="#6689a1" stroke-width="2"/>
      <line x1="920" y1="250" x2="1240" y2="250" stroke="#6689a1" stroke-width="2"/>

        <text x="1080" y="214" text-anchor="middle" font-size="18" font-weight="700" fill="#fcdebe">&lt;&lt;interface&gt;&gt;</text>

        <text x="1080" y="236" text-anchor="middle" font-size="23" font-weight="900" fill="#fcdebe">Implementor</text>


        <text x="938" y="278" font-size="19" fill="#d8c0a4">+ operationImpl()</text>

    </g>

    <g>
      <rect x="820" y="590" width="280" height="92" rx="10" fill="#3e4a56" stroke="#6689a1" stroke-width="2"/>
      <rect x="820" y="590" width="280" height="42" rx="10" fill="#465767" stroke="#6689a1" stroke-width="2"/>
      <line x1="820" y1="632" x2="1100" y2="632" stroke="#6689a1" stroke-width="2"/>

        <text x="960" y="614" text-anchor="middle" font-size="23" font-weight="900" fill="#fcdebe">ConcreteImplA</text>


        <text x="838" y="660" font-size="19" fill="#d8c0a4">+ operationImpl()</text>

    </g>

    <g>
      <rect x="1140" y="590" width="280" height="92" rx="10" fill="#3e4a56" stroke="#6689a1" stroke-width="2"/>
      <rect x="1140" y="590" width="280" height="42" rx="10" fill="#465767" stroke="#6689a1" stroke-width="2"/>
      <line x1="1140" y1="632" x2="1420" y2="632" stroke="#6689a1" stroke-width="2"/>

        <text x="1280" y="614" text-anchor="middle" font-size="23" font-weight="900" fill="#fcdebe">ConcreteImplB</text>


        <text x="1158" y="660" font-size="19" fill="#d8c0a4">+ operationImpl()</text>

    </g>

  </g>
  <g font-family="Nunito, Arial, sans-serif">

    <g>
      <path d="M 420 590 L 420 310" fill="none" stroke="#d8c0a4" stroke-width="2.4"  marker-end="url(#inherit)"/>

    </g>

    <g>
      <path d="M 580 255 L 920 255" fill="none" stroke="#d8c0a4" stroke-width="2.4"  marker-end="url(#arrow)"/>
      <text x="750" y="247" text-anchor="middle" font-size="17" fill="#d8c0a4">has-a</text>
    </g>

    <g>
      <path d="M 960 590 L 1040 310" fill="none" stroke="#d8c0a4" stroke-width="2.4" stroke-dasharray="9 7" marker-end="url(#inherit)"/>

    </g>

    <g>
      <path d="M 1280 590 L 1120 310" fill="none" stroke="#d8c0a4" stroke-width="2.4" stroke-dasharray="9 7" marker-end="url(#inherit)"/>

    </g>

  </g>
  <text x="80" y="928" font-family="Nunito, Arial, sans-serif" font-size="18" fill="#d8c0a4">UML estructural generado para Lectura Lenta</text>
</svg>
