
<svg xmlns="http://www.w3.org/2000/svg" width="1600" height="1000" viewBox="0 0 1600 1000">
  <defs>
    <marker id="arrow" markerWidth="14" markerHeight="14" refX="11" refY="5" orient="auto" markerUnits="strokeWidth">
      <path d="M 0 0 L 11 5 L 0 10 z" fill="#d8c0a4"/>
    </marker>
    <marker id="inherit" markerWidth="18" markerHeight="18" refX="16" refY="8" orient="auto" markerUnits="strokeWidth">
      <path d="M 1 1 L 16 8 L 1 15 z" fill="#2e343d" stroke="#d8c0a4" stroke-width="2"/>
    </marker>
    <marker id="diamond" markerWidth="18" markerHeight="18" refX="2" refY="8" orient="auto" markerUnits="strokeWidth">
      <path d="M 2 8 L 9 1 L 16 8 L 9 15 z" fill="#2e343d" stroke="#d8c0a4" stroke-width="2"/>
    </marker>
    <filter id="shadow" x="-20%" y="-20%" width="140%" height="140%">
      <feDropShadow dx="0" dy="10" stdDeviation="10" flood-color="#10141a" flood-opacity="0.32"/>
    </filter>
  </defs>
  <rect width="1600" height="1000" fill="#2e343d"/>
  <rect x="38" y="38" width="1524" height="924" rx="34" fill="rgba(57, 64, 73, 0.68)" stroke="#6689a1" stroke-width="2"/>
  <text x="80" y="104" font-family="Nunito, Arial, sans-serif" font-size="42" font-weight="900" fill="#fcdebe">Facade</text>
  <text x="80" y="144" font-family="Nunito, Arial, sans-serif" font-size="21" font-weight="700" letter-spacing="3" fill="#d8c0a4">Structural pattern · simple entry to complex flow</text>
  <g font-family="Nunito, Arial, sans-serif" filter="url(#shadow)">


    <g>
      <rect x="100" y="420" width="240" height="92" rx="10" fill="#3e4a56" stroke="#6689a1" stroke-width="2"/>
      <rect x="100" y="420" width="240" height="42" rx="10" fill="#465767" stroke="#6689a1" stroke-width="2"/>
      <line x1="100" y1="462" x2="340" y2="462" stroke="#6689a1" stroke-width="2"/>

        <text x="220" y="444" text-anchor="middle" font-size="23" font-weight="900" fill="#fcdebe">Client</text>


        <text x="118" y="490" font-size="19" fill="#d8c0a4">+ start()</text>

    </g>

    <g>
      <rect x="530" y="340" width="310" height="92" rx="10" fill="#3e4a56" stroke="#6689a1" stroke-width="2"/>
      <rect x="530" y="340" width="310" height="42" rx="10" fill="#465767" stroke="#6689a1" stroke-width="2"/>
      <line x1="530" y1="382" x2="840" y2="382" stroke="#6689a1" stroke-width="2"/>

        <text x="685" y="364" text-anchor="middle" font-size="23" font-weight="900" fill="#fcdebe">Facade</text>


        <text x="548" y="410" font-size="19" fill="#d8c0a4">+ simpleOperation()</text>

    </g>

    <g>
      <rect x="1080" y="160" width="300" height="92" rx="10" fill="#3e4a56" stroke="#6689a1" stroke-width="2"/>
      <rect x="1080" y="160" width="300" height="42" rx="10" fill="#465767" stroke="#6689a1" stroke-width="2"/>
      <line x1="1080" y1="202" x2="1380" y2="202" stroke="#6689a1" stroke-width="2"/>

        <text x="1230" y="184" text-anchor="middle" font-size="23" font-weight="900" fill="#fcdebe">SubsystemA</text>


        <text x="1098" y="230" font-size="19" fill="#d8c0a4">+ stepA()</text>

    </g>

    <g>
      <rect x="1080" y="390" width="300" height="92" rx="10" fill="#3e4a56" stroke="#6689a1" stroke-width="2"/>
      <rect x="1080" y="390" width="300" height="42" rx="10" fill="#465767" stroke="#6689a1" stroke-width="2"/>
      <line x1="1080" y1="432" x2="1380" y2="432" stroke="#6689a1" stroke-width="2"/>

        <text x="1230" y="414" text-anchor="middle" font-size="23" font-weight="900" fill="#fcdebe">SubsystemB</text>


        <text x="1098" y="460" font-size="19" fill="#d8c0a4">+ stepB()</text>

    </g>

    <g>
      <rect x="1080" y="620" width="300" height="92" rx="10" fill="#3e4a56" stroke="#6689a1" stroke-width="2"/>
      <rect x="1080" y="620" width="300" height="42" rx="10" fill="#465767" stroke="#6689a1" stroke-width="2"/>
      <line x1="1080" y1="662" x2="1380" y2="662" stroke="#6689a1" stroke-width="2"/>

        <text x="1230" y="644" text-anchor="middle" font-size="23" font-weight="900" fill="#fcdebe">SubsystemC</text>


        <text x="1098" y="690" font-size="19" fill="#d8c0a4">+ stepC()</text>

    </g>

  </g>
  <g font-family="Nunito, Arial, sans-serif">

    <g>
      <path d="M 340 460 L 530 410" fill="none" stroke="#d8c0a4" stroke-width="2.4" stroke-dasharray="9 7" marker-end="url(#arrow)"/>
      <text x="435" y="427" text-anchor="middle" font-size="17" fill="#d8c0a4">one call</text>
    </g>

    <g>
      <path d="M 840 390 L 1080 240" fill="none" stroke="#d8c0a4" stroke-width="2.4" stroke-dasharray="9 7" marker-end="url(#arrow)"/>

    </g>

    <g>
      <path d="M 840 430 L 1080 470" fill="none" stroke="#d8c0a4" stroke-width="2.4" stroke-dasharray="9 7" marker-end="url(#arrow)"/>

    </g>

    <g>
      <path d="M 840 470 L 1080 700" fill="none" stroke="#d8c0a4" stroke-width="2.4" stroke-dasharray="9 7" marker-end="url(#arrow)"/>

    </g>

  </g>
  <text x="80" y="928" font-family="Nunito, Arial, sans-serif" font-size="18" fill="#d8c0a4">UML estructural generado para Lectura Lenta</text>
</svg>
