
<svg xmlns="http://www.w3.org/2000/svg" width="1600" height="1000" viewBox="0 0 1600 1000">
  <defs>
    <marker id="arrow" markerWidth="14" markerHeight="14" refX="11" refY="5" orient="auto" markerUnits="strokeWidth">
      <path d="M 0 0 L 11 5 L 0 10 z" fill="#d8c0a4"/>
    </marker>
    <marker id="inherit" markerWidth="18" markerHeight="18" refX="16" refY="8" orient="auto" markerUnits="strokeWidth">
      <path d="M 1 1 L 16 8 L 1 15 z" fill="#2e343d" stroke="#d8c0a4" stroke-width="2"/>
    </marker>
    <marker id="diamond" markerWidth="18" markerHeight="18" refX="2" refY="8" orient="auto" markerUnits="strokeWidth">
      <path d="M 2 8 L 9 1 L 16 8 L 9 15 z" fill="#2e343d" stroke="#d8c0a4" stroke-width="2"/>
    </marker>
    <filter id="shadow" x="-20%" y="-20%" width="140%" height="140%">
      <feDropShadow dx="0" dy="10" stdDeviation="10" flood-color="#10141a" flood-opacity="0.32"/>
    </filter>
  </defs>
  <rect width="1600" height="1000" fill="#2e343d"/>
  <rect x="38" y="38" width="1524" height="924" rx="34" fill="rgba(57, 64, 73, 0.68)" stroke="#6689a1" stroke-width="2"/>
  <text x="80" y="104" font-family="Nunito, Arial, sans-serif" font-size="42" font-weight="900" fill="#fcdebe">Decorator</text>
  <text x="80" y="144" font-family="Nunito, Arial, sans-serif" font-size="21" font-weight="700" letter-spacing="3" fill="#d8c0a4">Structural pattern · behavior by wrapping</text>
  <g font-family="Nunito, Arial, sans-serif" filter="url(#shadow)">


    <g>
      <rect x="620" y="160" width="330" height="110" rx="10" fill="#3e4a56" stroke="#6689a1" stroke-width="2"/>
      <rect x="620" y="160" width="330" height="60" rx="10" fill="#465767" stroke="#6689a1" stroke-width="2"/>
      <line x1="620" y1="220" x2="950" y2="220" stroke="#6689a1" stroke-width="2"/>

        <text x="785" y="184" text-anchor="middle" font-size="18" font-weight="700" fill="#fcdebe">&lt;&lt;interface&gt;&gt;</text>

        <text x="785" y="206" text-anchor="middle" font-size="23" font-weight="900" fill="#fcdebe">Component</text>


        <text x="638" y="248" font-size="19" fill="#d8c0a4">+ operation()</text>

    </g>

    <g>
      <rect x="260" y="560" width="320" height="92" rx="10" fill="#3e4a56" stroke="#6689a1" stroke-width="2"/>
      <rect x="260" y="560" width="320" height="42" rx="10" fill="#465767" stroke="#6689a1" stroke-width="2"/>
      <line x1="260" y1="602" x2="580" y2="602" stroke="#6689a1" stroke-width="2"/>

        <text x="420" y="584" text-anchor="middle" font-size="23" font-weight="900" fill="#fcdebe">ConcreteComponent</text>


        <text x="278" y="630" font-size="19" fill="#d8c0a4">+ operation()</text>

    </g>

    <g>
      <rect x="760" y="500" width="330" height="134" rx="10" fill="#3e4a56" stroke="#6689a1" stroke-width="2"/>
      <rect x="760" y="500" width="330" height="60" rx="10" fill="#465767" stroke="#6689a1" stroke-width="2"/>
      <line x1="760" y1="560" x2="1090" y2="560" stroke="#6689a1" stroke-width="2"/>

        <text x="925" y="524" text-anchor="middle" font-size="18" font-weight="700" fill="#fcdebe">&lt;&lt;abstract&gt;&gt;</text>

        <text x="925" y="546" text-anchor="middle" font-size="23" font-weight="900" fill="#fcdebe">Decorator</text>


        <text x="778" y="588" font-size="19" fill="#d8c0a4">- wrappee: Component</text>

        <text x="778" y="612" font-size="19" fill="#d8c0a4">+ operation()</text>

    </g>

    <g>
      <rect x="1040" y="760" width="330" height="92" rx="10" fill="#3e4a56" stroke="#6689a1" stroke-width="2"/>
      <rect x="1040" y="760" width="330" height="42" rx="10" fill="#465767" stroke="#6689a1" stroke-width="2"/>
      <line x1="1040" y1="802" x2="1370" y2="802" stroke="#6689a1" stroke-width="2"/>

        <text x="1205" y="784" text-anchor="middle" font-size="23" font-weight="900" fill="#fcdebe">ConcreteDecoratorA</text>


        <text x="1058" y="830" font-size="19" fill="#d8c0a4">+ addedBehavior()</text>

    </g>

  </g>
  <g font-family="Nunito, Arial, sans-serif">

    <g>
      <path d="M 420 560 L 705 282" fill="none" stroke="#d8c0a4" stroke-width="2.4" stroke-dasharray="9 7" marker-end="url(#inherit)"/>

    </g>

    <g>
      <path d="M 925 500 L 825 282" fill="none" stroke="#d8c0a4" stroke-width="2.4" stroke-dasharray="9 7" marker-end="url(#inherit)"/>

    </g>

    <g>
      <path d="M 925 500 L 900 282" fill="none" stroke="#d8c0a4" stroke-width="2.4"  marker-end="url(#arrow)"/>
      <text x="912.5" y="383" text-anchor="middle" font-size="17" fill="#d8c0a4">wraps</text>
    </g>

    <g>
      <path d="M 1205 760 L 1010 638" fill="none" stroke="#d8c0a4" stroke-width="2.4"  marker-end="url(#inherit)"/>

    </g>

  </g>
  <text x="80" y="928" font-family="Nunito, Arial, sans-serif" font-size="18" fill="#d8c0a4">UML estructural generado para Lectura Lenta</text>
</svg>
