
<svg xmlns="http://www.w3.org/2000/svg" width="1600" height="1000" viewBox="0 0 1600 1000">
  <defs>
    <marker id="arrow" markerWidth="14" markerHeight="14" refX="11" refY="5" orient="auto" markerUnits="strokeWidth">
      <path d="M 0 0 L 11 5 L 0 10 z" fill="#d8c0a4"/>
    </marker>
    <marker id="inherit" markerWidth="18" markerHeight="18" refX="16" refY="8" orient="auto" markerUnits="strokeWidth">
      <path d="M 1 1 L 16 8 L 1 15 z" fill="#2e343d" stroke="#d8c0a4" stroke-width="2"/>
    </marker>
    <marker id="diamond" markerWidth="18" markerHeight="18" refX="2" refY="8" orient="auto" markerUnits="strokeWidth">
      <path d="M 2 8 L 9 1 L 16 8 L 9 15 z" fill="#2e343d" stroke="#d8c0a4" stroke-width="2"/>
    </marker>
    <filter id="shadow" x="-20%" y="-20%" width="140%" height="140%">
      <feDropShadow dx="0" dy="10" stdDeviation="10" flood-color="#10141a" flood-opacity="0.32"/>
    </filter>
  </defs>
  <rect width="1600" height="1000" fill="#2e343d"/>
  <rect x="38" y="38" width="1524" height="924" rx="34" fill="rgba(57, 64, 73, 0.68)" stroke="#6689a1" stroke-width="2"/>
  <text x="80" y="104" font-family="Nunito, Arial, sans-serif" font-size="42" font-weight="900" fill="#fcdebe">Composite</text>
  <text x="80" y="144" font-family="Nunito, Arial, sans-serif" font-size="21" font-weight="700" letter-spacing="3" fill="#d8c0a4">Structural pattern · parts and groups as one</text>
  <g font-family="Nunito, Arial, sans-serif" filter="url(#shadow)">


    <g>
      <rect x="610" y="150" width="360" height="134" rx="10" fill="#3e4a56" stroke="#6689a1" stroke-width="2"/>
      <rect x="610" y="150" width="360" height="60" rx="10" fill="#465767" stroke="#6689a1" stroke-width="2"/>
      <line x1="610" y1="210" x2="970" y2="210" stroke="#6689a1" stroke-width="2"/>

        <text x="790" y="174" text-anchor="middle" font-size="18" font-weight="700" fill="#fcdebe">&lt;&lt;interface&gt;&gt;</text>

        <text x="790" y="196" text-anchor="middle" font-size="23" font-weight="900" fill="#fcdebe">Component</text>


        <text x="628" y="238" font-size="19" fill="#d8c0a4">+ operation()</text>

        <text x="628" y="262" font-size="19" fill="#d8c0a4">+ add(Component)</text>

    </g>

    <g>
      <rect x="330" y="570" width="300" height="92" rx="10" fill="#3e4a56" stroke="#6689a1" stroke-width="2"/>
      <rect x="330" y="570" width="300" height="42" rx="10" fill="#465767" stroke="#6689a1" stroke-width="2"/>
      <line x1="330" y1="612" x2="630" y2="612" stroke="#6689a1" stroke-width="2"/>

        <text x="480" y="594" text-anchor="middle" font-size="23" font-weight="900" fill="#fcdebe">Leaf</text>


        <text x="348" y="640" font-size="19" fill="#d8c0a4">+ operation()</text>

    </g>

    <g>
      <rect x="910" y="570" width="340" height="134" rx="10" fill="#3e4a56" stroke="#6689a1" stroke-width="2"/>
      <rect x="910" y="570" width="340" height="42" rx="10" fill="#465767" stroke="#6689a1" stroke-width="2"/>
      <line x1="910" y1="612" x2="1250" y2="612" stroke="#6689a1" stroke-width="2"/>

        <text x="1080" y="594" text-anchor="middle" font-size="23" font-weight="900" fill="#fcdebe">Composite</text>


        <text x="928" y="640" font-size="19" fill="#d8c0a4">- children: Component[]</text>

        <text x="928" y="664" font-size="19" fill="#d8c0a4">+ operation()</text>

        <text x="928" y="688" font-size="19" fill="#d8c0a4">+ add(Component)</text>

    </g>

  </g>
  <g font-family="Nunito, Arial, sans-serif">

    <g>
      <path d="M 480 570 L 700 296" fill="none" stroke="#d8c0a4" stroke-width="2.4" stroke-dasharray="9 7" marker-end="url(#inherit)"/>

    </g>

    <g>
      <path d="M 1080 570 L 880 296" fill="none" stroke="#d8c0a4" stroke-width="2.4" stroke-dasharray="9 7" marker-end="url(#inherit)"/>

    </g>

    <g>
      <path d="M 1080 570 L 820 296" fill="none" stroke="#d8c0a4" stroke-width="2.4"  marker-start="url(#diamond)"/>
      <text x="950" y="425" text-anchor="middle" font-size="17" fill="#d8c0a4">children</text>
    </g>

  </g>
  <text x="80" y="928" font-family="Nunito, Arial, sans-serif" font-size="18" fill="#d8c0a4">UML estructural generado para Lectura Lenta</text>
</svg>
